<mxfile host="app.diagrams.net" modified="2024-01-26T01:54:21.069Z" agent="Mozilla/5.0 (Windows NT 10.0; Win64; x64) AppleWebKit/537.36 (KHTML, like Gecko) Chrome/121.0.0.0 Safari/537.36" version="22.1.18" etag="qn76m4xkd0agnC2zcKrN" type="github">
  <diagram name="第 1 页" id="_7pV1ltF6hcguEn862h8">
    <mxGraphModel>
      <root>
        <mxCell id="0" />
        <mxCell id="1" parent="0" />
      </root>
    </mxGraphModel>
  </diagram>
</mxfile>
